#!OML:ASF E:\VariousWalksJay\Project 1\Capture day 1\Session 1\Actor2.ASF
:FULLY-SPECIFIED
:DEGREES
794
root 0.458703 17.0966 30.0865 0.0734399 3.3031 -9.89995
lowerback -10.2764 1.00544 7.76428
upperback -1.61771 0.420624 1.36106
thorax 4.11897 0.311297 -2.88658
lowerneck -6.62872 -3.49428 -2.29137
upperneck 6.52216 -5.08854 7.74299
head 3.63015 -2.27305 2.73321
rclavicle -2.78299e-015 -1.35174e-014
rhumerus -7.90664 23.2208 -77.5222
rradius 70.3829
rwrist -6.9787
rhand -12.9789 9.4489
rfingers 7.12502
rthumb 13.1135 -20.1188
lclavicle -2.78299e-015 -1.35174e-014
lhumerus -63.0983 -53.0511 100.796
lradius 53.802
lwrist 18.2132
lhand -5.83154 -18.1646
lfingers 7.12502
lthumb 19.9943 10.8268
rfemur 0.125548 -9.86097 36.8601
rtibia 27.4043
rfoot -15.3218 -2.90896
rtoes -3.98777
lfemur -36.5344 -4.55216 -10.6474
ltibia 30.4651
lfoot -25.9367 4.63433
ltoes -22.4328
795
root 0.434966 17.0829 30.1922 0.0803879 3.38658 -10.0851
lowerback -10.4083 1.14007 7.85951
upperback -1.63775 0.574599 1.40732
thorax 4.18824 0.390294 -2.86872
lowerneck -6.56874 -3.56241 -2.31934
upperneck 6.51301 -5.17363 7.70293
head 3.61956 -2.31886 2.71998
rclavicle 1.19271e-014 5.56597e-015
rhumerus -6.47734 23.3806 -76.5686
rradius 71.6584
rwrist -7.16224
rhand -13.0431 9.62316
rfingers 7.12502
rthumb 13.0517 -19.9485
lclavicle 1.19271e-014 5.56597e-015
lhumerus -64.5727 -53.5295 100.928
lradius 54.2938
lwrist 18.42
lhand -5.71389 -18.1574
lfingers 7.12502
lthumb 20.1074 10.8221
rfemur 0.734331 -10.2095 36.8904
rtibia 26.975
rfoot -15.1878 -1.96846
rtoes -4.32273
lfemur -36.2236 -4.66129 -10.6982
ltibia 28.9005
lfoot -25.8808 4.31113
ltoes -22.3982
796
root 0.411552 17.0635 30.2981 0.111962 3.44397 -10.2305
lowerback -10.5435 1.2666 7.91692
upperback -1.67079 0.722496 1.44601
thorax 4.24473 0.464991 -2.83791
lowerneck -6.51285 -3.62013 -2.34905
upperneck 6.5274 -5.24744 7.6779
head 3.61808 -2.358 2.71317
rclavicle -1.48095e-014 5.56597e-015
rhumerus -5.06428 23.4844 -75.6547
rradius 72.8903
rwrist -7.38795
rhand -13.0922 9.77161
rfingers 7.12502
rthumb 13.0043 -19.8031
lclavicle -1.48095e-014 5.56597e-015
lhumerus -66.1021 -54.0149 101.136
lradius 54.7836
lwrist 18.6122
lhand -5.61228 -18.1516
lfingers 7.12502
lthumb 20.205 10.8176
rfemur 1.3056 -10.544 36.8887
rtibia 26.6007
rfoot -15.1431 -1.04927
rtoes -4.54081
lfemur -35.9411 -4.77099 -10.7441
ltibia 27.6071
lfoot -25.7837 4.01684
ltoes -22.2538
797
root 0.388409 17.0383 30.4044 0.169124 3.48827 -10.3353
lowerback -10.6904 1.38418 7.93351
upperback -1.71496 0.862849 1.47581
thorax 4.29474 0.534882 -2.79404
lowerneck -6.46854 -3.67324 -2.36858
upperneck 6.56913 -5.31767 7.65028
head 3.62771 -2.39441 2.70389
rclavicle -2.98177e-015 -7.15625e-015
rhumerus -3.68213 23.5217 -74.7968
rradius 74.0731
rwrist -7.66634
rhand -13.138 9.87987
rfingers 7.12502
rthumb 12.9602 -19.6976
lclavicle -2.98177e-015 -7.15625e-015
lhumerus -67.6614 -54.5029 101.408
lradius 55.2529
lwrist 18.7915
lhand -5.53476 -18.1584
lfingers 7.12502
lthumb 20.2795 10.8029
rfemur 1.83558 -10.8709 36.8587
rtibia 26.2854
rfoot -15.2013 -0.16457
rtoes -4.6147
lfemur -35.6959 -4.8972 -10.7858
ltibia 26.5918
lfoot -25.649 3.64009
ltoes -22.074
798
root 0.365432 17.0074 30.5111 0.245084 3.52176 -10.3957
lowerback -10.8453 1.49466 7.9056
upperback -1.76541 0.998922 1.49395
thorax 4.34145 0.601772 -2.73753
lowerneck -6.43019 -3.72685 -2.38503
upperneck 6.62375 -5.39019 7.62792
head 3.64328 -2.43129 2.69578
rclavicle -9.83984e-015 1.74931e-014
rhumerus -2.33972 23.4899 -74.0053
rradius 75.2047
rwrist -8.007
rhand -13.1758 9.94685
rfingers 7.12502
rthumb 12.9238 -19.6329
lclavicle -9.83984e-015 1.74931e-014
lhumerus -69.2481 -55.0065 101.756
lradius 55.6894
lwrist 18.9806
lhand -5.47305 -18.1663
lfingers 7.12502
lthumb 20.3388 10.7887
rfemur 2.33266 -11.1909 36.7965
rtibia 26.0286
rfoot -15.3729 0.669758
rtoes -4.59157
lfemur -35.4803 -5.06419 -10.8196
ltibia 25.8509
lfoot -25.4623 3.10318
ltoes -21.8679
799
root 0.342771 16.9713 30.6188 0.334755 3.54981 -10.4069
lowerback -11.0078 1.60123 7.83327
upperback -1.82138 1.13539 1.4961
thorax 4.38572 0.66805 -2.6723
lowerneck -6.39321 -3.7814 -2.40374
upperneck 6.68571 -5.46524 7.61696
head 3.66245 -2.46887 2.69194
rclavicle -1.59028e-014 -1.74931e-014
rhumerus -1.07175 23.3815 -73.2939
rradius 76.297
rwrist -8.39239
rhand -13.2049 9.98291
rfingers 7.12502
rthumb 12.8957 -19.5987
lclavicle -1.59028e-014 -1.74931e-014
lhumerus -70.8423 -55.5177 102.163
lradius 56.0905
lwrist 19.1691
lhand -5.42237 -18.1762
lfingers 7.12502
lthumb 20.3876 10.7736
rfemur 2.80729 -11.5037 36.6939
rtibia 25.8246
rfoot -15.6451 1.45645
rtoes -4.43335
lfemur -35.2854 -5.30428 -10.8431
ltibia 25.3728
lfoot -25.2107 2.37667
ltoes -21.6537
800
root 0.320255 16.9302 30.7275 0.428634 3.56941 -10.3849
lowerback -11.1733 1.70523 7.73495
upperback -1.87522 1.27197 1.48431
thorax 4.43326 0.7342 -2.60651
lowerneck -6.35165 -3.83819 -2.4243
upperneck 6.73727 -5.54342 7.61677
head 3.67787 -2.50794 2.69197
rclavicle 2.17669e-014 3.26007e-014
rhumerus 0.122168 23.2134 -72.6667
rradius 77.3501
rwrist -8.79238
rhand -13.2355 9.99447
rfingers 7.12502
rthumb 12.8662 -19.589
lclavicle 2.17669e-014 3.26007e-014
lhumerus -72.4134 -56.0355 102.6
lradius 56.449
lwrist 19.3626
lhand -5.36676 -18.1796
lfingers 7.12502
lthumb 20.441 10.7644
rfemur 3.2743 -11.7837 36.5706
rtibia 25.6621
rfoot -16.01 2.17901
rtoes -4.18851
lfemur -35.0979 -5.63497 -10.8334
ltibia 25.143
lfoot -24.9111 1.4628
ltoes -21.4396
801
root 0.2979 16.8845 30.8373 0.519033 3.5715 -10.3362
lowerback -11.333 1.81238 7.62274
upperback -1.92753 1.41578 1.45898
thorax 4.47947 0.80375 -2.54554
lowerneck -6.30871 -3.89557 -2.44798
upperneck 6.78271 -5.62249 7.62537
head 3.6915 -2.54733 2.69555
rclavicle 9.93923e-017 -1.43125e-014
rhumerus 1.21521 22.9931 -72.1297
rradius 78.3729
rwrist -9.16158
rhand -13.2648 9.98713
rfingers 7.12502
rthumb 12.8379 -19.5981
lclavicle 9.93923e-017 -1.43125e-014
lhumerus -73.9372 -56.5452 103.045
lradius 56.7571
lwrist 19.5381
lhand -5.31099 -18.1905
lfingers 7.12502
lthumb 20.4946 10.7478
rfemur 3.74718 -12.0123 36.4316
rtibia 25.5307
rfoot -16.4522 2.84056
rtoes -3.86921
lfemur -34.9064 -6.06199 -10.7817
ltibia 25.1368
lfoot -24.5655 0.400194
ltoes -21.2001
802
root 0.275902 16.8354 30.9484 0.601361 3.54633 -10.2718
lowerback -11.4817 1.92377 7.51427
upperback -1.97558 1.56648 1.42117
thorax 4.5247 0.876836 -2.49826
lowerneck -6.259 -3.94706 -2.48246
upperneck 6.81083 -5.69328 7.65444
head 3.69869 -2.58262 2.70872
rclavicle 4.02539e-014 5.80451e-014
rhumerus 2.20676 22.7476 -71.6819
rradius 79.3718
rwrist -9.47276
rhand -13.2957 9.9669
rfingers 7.12502
rthumb 12.8081 -19.6202
lclavicle 4.02539e-014 5.80451e-014
lhumerus -75.3813 -57.0291 103.454
lradius 57.021
lwrist 19.6812
lhand -5.23595 -18.1934
lfingers 7.12502
lthumb 20.5667 10.7371
rfemur 4.23713 -12.1809 36.2841
rtibia 25.4185
rfoot -16.9495 3.44802
rtoes -3.5299
lfemur -34.6927 -6.56996 -10.685
ltibia 25.3255
lfoot -24.1858 -0.766929
ltoes -20.9206
